<?xml version="1.0" encoding="utf-8"?>
<!-- Generator: Adobe Illustrator 26.0.1, SVG Export Plug-In . SVG Version: 6.00 Build 0)  -->
<svg version="1.1" id="Layer_1" xmlns="http://www.w3.org/2000/svg" xmlns:xlink="http://www.w3.org/1999/xlink" x="0px" y="0px"
	 viewBox="0 0 61 66" style="enable-background:new 0 0 61 66;" xml:space="preserve">
<style type="text/css">
	.st0{fill:#FBC01F;stroke:#FBC01F;stroke-miterlimit:10;}
	.st1{fill:none;stroke:#FBC01F;stroke-width:2;stroke-linecap:round;stroke-miterlimit:10;}
	.st2{fill:none;stroke:#FBC01F;stroke-linecap:round;stroke-miterlimit:10;}
	.st3{fill:none;stroke:#FBC01F;stroke-miterlimit:10;}
	.st4{fill:#FBC01F;}
</style>
<g id="Background">
</g>
<g id="ICON">
	<g>
		<g>
			<circle class="st0" cx="-68" cy="40" r="2"/>
			<circle class="st0" cx="-58" cy="32" r="2"/>
			<circle class="st0" cx="-51" cy="37" r="2"/>
			<circle class="st0" cx="-45" cy="29" r="2"/>
			<circle class="st0" cx="-36" cy="24" r="2"/>
			<circle class="st0" cx="-30" cy="16" r="2"/>
		</g>
		<g>
			<g>
				<path class="st1" d="M-36,28.9V50c0,2.8-2.2,5-5,5h-16c-2.8,0-5-2.2-5-5V39.7"/>
				<path class="st1" d="M-62,30.5V14c0-2.8,2.2-5,5-5h16c2.8,0,5,2.2,5,5v4.3"/>
				<line class="st2" x1="-62" y1="15.5" x2="-36" y2="15.5"/>
				<line class="st2" x1="-62" y1="46.5" x2="-36" y2="46.5"/>
				<line class="st2" x1="-51" y1="12.5" x2="-47" y2="12.5"/>
				<circle class="st2" cx="-49" cy="50.5" r="2"/>
			</g>
			<polyline class="st3" points="-68,40 -58,32 -51,37 -45,29 -36,24 -30,16 			"/>
		</g>
	</g>
	<g>
		<g>
			<path class="st1" d="M-120,45.6V50c0,2.8-2.2,5-5,5h-16c-2.8,0-5-2.2-5-5V14c0-2.8,2.2-5,5-5h16c2.8,0,5,2.2,5,5v3.4"/>
			<line class="st2" x1="-146" y1="15.5" x2="-120" y2="15.5"/>
			<line class="st2" x1="-146" y1="46.5" x2="-120" y2="46.5"/>
			<line class="st2" x1="-135.5" y1="12.5" x2="-130.5" y2="12.5"/>
			<circle class="st2" cx="-133" cy="50.5" r="2"/>
		</g>
		<path class="st0" d="M-110.8,46.2L-110.8,46.2c-1,1-2.7,1-3.7,0l-4.6-4.6l3.7-3.7l4.6,4.6C-109.7,43.6-109.7,45.2-110.8,46.2z"/>
		<circle class="st1" cx="-125" cy="31" r="11"/>
	</g>
	<g>
		<g>
			<path class="st1" d="M-205,42v8c0,2.8-2.2,5-5,5h-16c-2.8,0-5-2.2-5-5V14c0-2.8,2.2-5,5-5h16c0.3,0,0.6,0,0.9,0.1"/>
			<line class="st2" x1="-231" y1="15.5" x2="-214.3" y2="15.5"/>
			<line class="st2" x1="-231" y1="46.5" x2="-205" y2="46.5"/>
			<line class="st2" x1="-220.5" y1="12.5" x2="-215.5" y2="12.5"/>
			<circle class="st2" cx="-218" cy="50.5" r="2"/>
		</g>
	</g>
	<path class="st1" d="M-188.5,35.1v-2c-3-3-3.9-4.9-3.9-8.9v-3.9c0-4.9-4-8.9-8.9-8.9s-8.9,4-8.9,8.9v3.9c0,3.9-1,5.9-3.9,8.9v2
		H-188.5z"/>
	<path class="st1" d="M-198,36c0,1.1-1.4,2-3,2s-3-0.9-3-2"/>
	<line class="st1" x1="-201.4" y1="8.4" x2="-201.4" y2="11.4"/>
</g>
<g>
	<path class="st4" d="M53.8,12.7H39.9c-0.7,0-0.8,0.1-0.8,0.8c0,4.4,0,8.7,0,13c0,0.3,0.1,0.6,0.2,0.8c2.4,3.8,4.8,7.5,7.2,11.3
		l0.1,0.1c0.2,0.3,0.4,0.5,0.8,0.4c0.3-0.1,0.4-0.4,0.4-0.8c0-3.5,0-7,0-10.5c0-0.1,0-0.3,0-0.5c0.1,0,0.3,0,0.4,0
		c1.9,0,3.7,0,5.6,0c0.7,0,0.8-0.1,0.8-0.9c0-4.4,0-8.7,0-13C54.6,12.8,54.5,12.7,53.8,12.7z"/>
	<path class="st4" d="M35.4,12.7H21.5c-0.7,0-0.8,0.1-0.8,0.8c0,4.4,0,8.7,0,13c0,0.3,0.1,0.6,0.2,0.8c2.4,3.8,4.8,7.5,7.2,11.3
		l0.1,0.1c0.2,0.3,0.4,0.5,0.8,0.4c0.3-0.1,0.4-0.4,0.4-0.8c0-3.5,0-7,0-10.5c0-0.1,0-0.3,0-0.5c0.1,0,0.3,0,0.4,0
		c1.9,0,3.7,0,5.6,0c0.7,0,0.8-0.1,0.8-0.9c0-4.4,0-8.7,0-13C36.3,12.8,36.1,12.7,35.4,12.7z"/>
</g>
</svg>
